<?xml version="1.0" encoding="utf-8"?>
<!-- Generator: Adobe Illustrator 16.0.0, SVG Export Plug-In . SVG Version: 6.00 Build 0)  -->
<!DOCTYPE svg PUBLIC "-//W3C//DTD SVG 1.1//EN" "http://www.w3.org/Graphics/SVG/1.1/DTD/svg11.dtd">
<svg version="1.1"
	 id="Layer_1" xmlns:sodipodi="http://sodipodi.sourceforge.net/DTD/sodipodi-0.dtd" xmlns:cc="http://creativecommons.org/ns#" xmlns:svg="http://www.w3.org/2000/svg" xmlns:inkscape="http://www.inkscape.org/namespaces/inkscape" xmlns:dc="http://purl.org/dc/elements/1.1/" xmlns:rdf="http://www.w3.org/1999/02/22-rdf-syntax-ns#" sodipodi:docname="freeCodeCamp.svg" inkscape:version="0.48.5 r10040"
	 xmlns="http://www.w3.org/2000/svg" xmlns:xlink="http://www.w3.org/1999/xlink" x="0px" y="0px" width="782.79px"
	 height="115.333px" viewBox="4.764 242.99 782.79 115.333" enable-background="new 4.764 242.99 782.79 115.333"
	 xml:space="preserve">
<sodipodi:namedview  id="namedview43" showgrid="false" inkscape:zoom="1" bordercolor="#666666" objecttolerance="10" inkscape:cy="-163.56938" pagecolor="#ffffff" gridtolerance="10" inkscape:cx="215.72458" guidetolerance="10" borderopacity="1" inkscape:pageshadow="2" inkscape:window-maximized="1" inkscape:pageopacity="0" inkscape:current-layer="Layer_1" inkscape:window-height="705" inkscape:window-x="-4" inkscape:window-width="1366" inkscape:window-y="-4">
	</sodipodi:namedview>
<g>
	
		<path id="rect3038" inkscape:export-filename="C:\Users\anon\Desktop\logo4.0.png" inkscape:export-xdpi="90" inkscape:export-ydpi="90" fill="#502D16" d="
		M19.096,242.99h754.126c7.916,0,14.332,6.417,14.332,14.332v86.669c0,7.915-6.416,14.332-14.332,14.332H19.096
		c-7.916,0-14.332-6.417-14.332-14.332v-86.669C4.764,249.407,11.18,242.99,19.096,242.99z"/>
	
		<path id="path5" inkscape:export-filename="C:\Users\anon\Desktop\logo4.0.png" inkscape:export-xdpi="90" inkscape:connector-curvature="0" inkscape:export-ydpi="90" fill="#FFFFFF" d="
		M43.188,289.445h-6.351c-2.223,0-3.334-0.952-3.334-2.857s1.111-2.858,3.334-2.858h6.351v-5.558
		c0-9.686,4.922-14.449,14.767-14.449c3.97,0,7.304,0.794,10.003,2.224c3.334,2.063,5.081,5.081,5.081,8.892
		c0,2.54-0.953,3.652-2.858,3.652c-1.27,0-2.382-0.794-3.017-2.224c-0.794-2.54-1.588-3.97-2.064-4.604
		c-1.111-1.429-3.493-2.223-6.986-2.223c-6.034,0-8.892,3.017-8.892,8.892v5.398h11.591c2.541,0,3.811,0.953,3.811,2.858
		s-1.271,2.857-3.811,2.857H49.222v36.361c0,2.223-0.953,3.335-2.858,3.335c-1.906,0-2.858-1.112-2.858-3.335v-36.361H43.188z"/>
	
		<path id="path7" inkscape:export-filename="C:\Users\anon\Desktop\logo4.0.png" inkscape:export-xdpi="90" inkscape:connector-curvature="0" inkscape:export-ydpi="90" fill="#FFFFFF" d="
		M94.792,322.631v-33.186h-8.574c-2.382,0-3.493-0.952-3.493-2.857s1.111-2.858,3.493-2.858H97.65c1.905,0,3.017,1.747,3.017,4.922
		c3.493-3.811,7.304-5.874,11.273-5.874c3.334,0,5.875,0.952,7.78,3.017c1.906,2.063,2.858,4.764,2.858,7.938
		c0,2.224-0.953,3.335-2.858,3.335c-1.111,0-1.905-0.794-2.381-2.224c-0.794-2.699-1.271-4.128-1.429-4.286
		c-0.794-1.43-2.382-2.224-4.446-2.224c-2.223,0-4.287,0.794-6.192,2.382c-1.112,0.794-2.699,2.541-4.764,5.081v26.517h10.797
		c2.381,0,3.493,0.953,3.493,2.699c0,1.905-1.112,3.017-3.493,3.017H86.06c-2.382,0-3.493-0.952-3.493-2.857
		s1.111-2.858,3.493-2.858h8.733V322.631z"/>
	
		<path id="path9" inkscape:export-filename="C:\Users\anon\Desktop\logo4.0.png" inkscape:export-xdpi="90" inkscape:connector-curvature="0" inkscape:export-ydpi="90" fill="#FFFFFF" d="
		M138.14,307.07v6.352c0,6.827,4.763,10.162,14.449,10.162c3.494,0,6.352-0.317,8.574-1.111c1.112-0.317,3.176-1.43,5.875-3.335
		c1.747-1.588,3.017-2.382,3.493-2.382c1.588,0,2.382,0.794,2.382,2.541c0,1.746-1.111,3.493-3.493,5.398
		c-3.811,3.017-9.527,4.604-17.148,4.604c-13.337,0-20.006-5.239-20.006-15.719v-15.879c0-3.651,1.429-6.827,4.128-9.368
		c3.652-3.493,9.05-5.081,16.354-5.081c13.02,0,19.53,6.511,19.53,19.372c0,3.176-1.27,4.763-3.652,4.763H138.14V307.07z
		 M138.14,301.354h28.422c0-8.574-4.764-12.861-14.449-12.861c-3.493,0-6.669,0.794-9.527,2.382
		c-2.858,2.063-4.446,4.445-4.446,7.145V301.354z"/>
	
		<path id="path11" inkscape:export-filename="C:\Users\anon\Desktop\logo4.0.png" inkscape:export-xdpi="90" inkscape:connector-curvature="0" inkscape:export-ydpi="90" fill="#FFFFFF" d="
		M187.997,307.07v6.352c0,6.827,4.764,10.162,14.449,10.162c3.493,0,6.351-0.317,8.574-1.111c1.111-0.317,3.176-1.43,5.875-3.335
		c1.747-1.588,3.017-2.382,3.493-2.382c1.588,0,2.382,0.794,2.382,2.541c0,1.746-1.112,3.493-3.493,5.398
		c-3.811,3.017-9.527,4.604-17.148,4.604c-13.338,0-20.006-5.239-20.006-15.719v-15.879c0-3.651,1.429-6.827,4.128-9.368
		c3.652-3.493,9.051-5.081,16.354-5.081c13.02,0,19.53,6.511,19.53,19.372c0,3.176-1.271,4.763-3.652,4.763h-30.486V307.07z
		 M187.997,301.354h28.422c0-8.574-4.763-12.861-14.449-12.861c-3.493,0-6.669,0.794-9.527,2.382
		c-3.017,2.063-4.446,4.445-4.446,7.145V301.354z"/>
	
		<path id="path13" inkscape:export-filename="C:\Users\anon\Desktop\logo4.0.png" inkscape:export-xdpi="90" inkscape:connector-curvature="0" inkscape:export-ydpi="90" fill="#FFFFFF" d="
		M232.614,310.723v-24.771c0-13.02,6.828-19.371,20.642-19.371c5.557,0,10.003,1.271,13.496,3.652
		c3.97,3.017,5.875,7.145,5.875,12.226c0,2.382-0.953,3.652-3.017,3.652c-1.429,0-2.382-1.111-3.017-3.493
		c-0.317-1.905-1.111-3.811-2.223-5.558c-1.747-3.176-5.558-4.604-11.591-4.604c-5.081,0-8.733,1.271-10.956,3.811
		c-2.064,2.382-3.176,6.034-3.176,11.273v20.642c0,5.399,1.111,9.21,3.334,11.592c2.382,2.54,6.034,3.969,11.115,3.969
		c7.78,0,12.226-2.699,13.337-8.098c0.477-2.063,0.635-3.017,0.635-3.176c0.476-1.111,1.27-1.746,2.382-1.746
		c1.905,0,3.017,1.271,3.017,3.651c0,4.923-2.064,8.733-6.192,11.75c-3.334,2.224-7.622,3.335-13.02,3.335
		c-6.351,0-11.273-1.43-14.925-4.446C234.52,321.679,232.614,316.915,232.614,310.723L232.614,310.723z"/>
	
		<path id="path15" inkscape:export-filename="C:\Users\anon\Desktop\logo4.0.png" inkscape:export-xdpi="90" inkscape:connector-curvature="0" inkscape:export-ydpi="90" fill="#FFFFFF" d="
		M281.836,314.216v-16.354c0-10.004,6.669-14.926,20.006-14.926c13.338,0,20.006,4.922,20.006,14.926v16.354
		c0,10.003-6.51,14.926-19.688,14.926C288.505,329.142,281.836,324.219,281.836,314.216L281.836,314.216z M315.974,314.216v-16.354
		c0-6.192-4.763-9.368-14.449-9.368c-9.209,0-13.973,3.176-13.973,9.368v16.354c0,6.192,4.763,9.368,14.29,9.209
		C311.37,323.425,315.974,320.408,315.974,314.216L315.974,314.216z"/>
	
		<path id="path17" inkscape:export-filename="C:\Users\anon\Desktop\logo4.0.png" inkscape:export-xdpi="90" inkscape:connector-curvature="0" inkscape:export-ydpi="90" fill="#FFFFFF" d="
		M365.514,323.742c-2.699,2.064-5.081,3.335-7.145,4.129c-2.223,0.794-4.922,1.271-8.098,1.271c-5.398,0-9.686-1.112-13.02-3.335
		c-3.811-2.54-5.716-6.352-5.716-11.591v-16.672c0-4.923,1.906-8.733,5.558-11.273c3.175-2.224,7.462-3.335,12.543-3.335
		c3.334,0,6.192,0.317,8.416,1.111s4.604,2.224,7.145,4.287v-20.482c0-2.699,0.953-4.129,2.699-4.129
		c1.906,0,3.017,1.43,3.017,4.129v58.272c0,2.064-0.953,3.018-2.699,3.018c-1.112,0-1.905-0.636-2.223-1.906
		C365.673,326.283,365.514,325.172,365.514,323.742L365.514,323.742z M365.196,317.074v-22.865
		c-2.858-2.064-5.081-3.493-6.827-4.128c-2.382-0.953-4.922-1.43-7.78-1.43c-3.652,0-6.669,0.636-8.892,2.064
		c-2.858,1.747-4.287,4.287-4.287,7.463v15.72c0,3.334,1.429,5.875,4.446,7.621c2.382,1.271,5.399,2.064,9.051,2.064
		c3.017,0,5.716-0.477,7.939-1.429C360.75,320.885,362.815,319.297,365.196,317.074L365.196,317.074z"/>
	
		<path id="path19" inkscape:export-filename="C:\Users\anon\Desktop\logo4.0.png" inkscape:export-xdpi="90" inkscape:connector-curvature="0" inkscape:export-ydpi="90" fill="#FFFFFF" d="
		M387.108,307.07v6.352c0,6.827,4.763,10.162,14.449,10.162c3.493,0,6.351-0.317,8.574-1.111c1.111-0.317,3.176-1.43,5.875-3.335
		c1.746-1.588,3.017-2.382,3.493-2.382c1.588,0,2.382,0.794,2.382,2.541c0,1.746-1.112,3.493-3.493,5.398
		c-3.812,3.017-9.527,4.604-17.148,4.604c-13.338,0-20.007-5.239-20.007-15.719v-15.879c0-3.651,1.429-6.827,4.128-9.368
		c3.652-3.493,9.05-5.081,16.354-5.081c13.021,0,19.53,6.511,19.53,19.372c0,3.176-1.271,4.763-3.651,4.763h-30.486V307.07z
		 M387.108,301.354h28.422c0-8.574-4.764-12.861-14.449-12.861c-3.493,0-6.669,0.794-9.527,2.382
		c-3.017,2.063-4.446,4.445-4.446,7.145V301.354z"/>
	
		<path id="path21" inkscape:export-filename="C:\Users\anon\Desktop\logo4.0.png" inkscape:export-xdpi="90" inkscape:connector-curvature="0" inkscape:export-ydpi="90" fill="#FFFFFF" d="
		M431.726,310.723v-24.771c0-13.02,6.828-19.371,20.642-19.371c5.558,0,10.003,1.271,13.496,3.652
		c3.97,3.017,5.875,7.145,5.875,12.226c0,2.382-0.952,3.652-3.017,3.652c-1.429,0-2.382-1.111-3.017-3.493
		c-0.317-1.905-1.111-3.811-2.223-5.558c-1.747-3.176-5.558-4.604-11.592-4.604c-5.081,0-8.732,1.271-10.955,3.811
		c-2.064,2.382-3.176,6.034-3.176,11.273v20.642c0,5.399,1.111,9.21,3.334,11.592c2.382,2.54,6.034,3.969,11.115,3.969
		c7.78,0,12.226-2.699,13.337-8.098c0.477-2.063,0.636-3.017,0.636-3.176c0.476-1.111,1.27-1.746,2.382-1.746
		c1.905,0,3.017,1.271,3.017,3.651c0,4.923-2.064,8.733-6.192,11.75c-3.335,2.224-7.622,3.335-13.021,3.335
		c-6.352,0-11.273-1.43-14.925-4.446C433.79,321.679,431.726,316.915,431.726,310.723L431.726,310.723z"/>
	
		<path id="path23" inkscape:export-filename="C:\Users\anon\Desktop\logo4.0.png" inkscape:export-xdpi="90" inkscape:connector-curvature="0" inkscape:export-ydpi="90" fill="#FFFFFF" d="
		M513.021,323.742c-2.857,2.064-5.081,3.493-6.669,4.129c-2.063,0.794-4.604,1.271-7.78,1.271c-4.763,0-8.732-0.953-11.749-3.018
		c-3.493-2.382-5.399-5.875-5.399-10.479s1.906-8.257,5.558-10.797c3.176-2.382,7.304-3.493,12.067-3.493
		c3.97,0,8.415,0.953,13.496,2.699v-6.986c0-3.335-1.588-5.717-4.763-7.146c-2.224-0.952-4.923-1.429-8.099-1.429
		c-7.462,0-11.432,2.064-12.226,6.192c-0.317,1.905-0.635,2.858-0.635,3.017c-0.477,0.953-1.271,1.429-2.382,1.429
		c-2.064,0-3.176-1.111-3.176-3.334c0-3.017,1.111-5.716,3.493-8.257c2.858-3.176,8.098-4.763,15.401-4.763
		c5.875,0,10.162,0.952,13.021,2.857c3.334,2.382,5.081,6.352,5.081,11.909v20.324c0,2.381,0.477,3.969,1.429,4.763
		c0.159,0.159,1.111,0.636,2.699,1.271c0.953,0.477,1.429,1.271,1.429,2.699c0,1.588-0.793,2.382-2.54,2.382
		c-0.477,0-1.271-0.159-2.54-0.635c-2.224-0.794-3.652-1.271-3.97-1.43C513.975,326.442,513.339,325.33,513.021,323.742
		L513.021,323.742z M512.704,317.709v-8.415c-4.446-1.43-8.733-2.224-12.544-2.224c-8.574,0-12.861,2.699-12.861,8.257
		c0,2.858,1.271,5.081,3.811,6.352c2.064,1.111,4.605,1.746,7.78,1.746c2.7,0,5.24-0.477,7.463-1.588
		C508.1,321.202,510.164,319.773,512.704,317.709z"/>
	
		<path id="path25" inkscape:export-filename="C:\Users\anon\Desktop\logo4.0.png" inkscape:export-xdpi="90" inkscape:connector-curvature="0" inkscape:export-ydpi="90" fill="#FFFFFF" d="
		M535.251,287.699c1.429-1.747,2.699-3.017,3.652-3.493c1.27-0.794,2.857-1.271,4.922-1.271c3.176,0,5.875,1.588,8.257,4.922
		c1.588-1.905,3.017-3.175,4.287-3.811c1.429-0.794,3.334-1.111,5.557-1.111c6.828,0,10.321,3.335,10.321,10.003v32.233
		c0,2.699-0.953,3.97-3.017,3.97c-1.905,0-2.858-1.271-2.858-3.97v-30.328c0-4.128-1.746-6.351-5.081-6.351
		c-2.54,0-5.081,1.588-7.304,4.604v32.074c0,2.699-0.953,3.97-2.858,3.97s-2.857-1.271-2.857-3.97v-29.692
		c0-4.604-1.906-6.828-5.558-6.828c-2.382,0-4.604,1.588-6.986,4.605v31.915c0,2.699-0.953,3.97-3.017,3.97
		c-1.905,0-2.858-1.271-2.858-3.97v-39.378c0-1.905,0.794-2.858,2.382-2.858c0.794,0,1.588,0.635,2.064,1.747
		C534.934,285.477,535.251,286.588,535.251,287.699L535.251,287.699z"/>
	
		<path id="path27" inkscape:export-filename="C:\Users\anon\Desktop\logo4.0.png" inkscape:export-xdpi="90" inkscape:connector-curvature="0" inkscape:export-ydpi="90" fill="#FFFFFF" d="
		M586.854,287.699c4.446-3.176,9.687-4.764,15.402-4.764c12.067,0,18.101,5.081,18.101,15.084v16.514
		c0,4.764-1.746,8.415-5.081,11.115c-3.017,2.381-7.145,3.651-12.385,3.651c-6.192,0-11.432-1.588-16.037-4.922v18.736
		c0,2.857-0.952,4.287-2.857,4.287s-2.858-1.43-2.858-4.287v-55.892c0-2.858,0.794-4.287,2.382-4.287
		c0.794,0,1.588,0.635,2.223,1.747C586.061,285.635,586.537,286.746,586.854,287.699L586.854,287.699z M586.854,317.868
		c4.129,3.651,9.21,5.557,15.085,5.557c3.651,0,6.51-0.635,8.732-2.063c2.699-1.588,3.97-3.97,3.97-6.986v-16.514
		c0-3.493-1.429-5.875-4.287-7.463c-2.223-1.111-5.24-1.747-8.892-1.747c-3.335,0-6.034,0.477-8.098,1.43
		c-1.906,0.794-3.97,2.54-6.511,5.081V317.868L586.854,317.868z"/>
	
		<path id="path29" inkscape:export-filename="C:\Users\anon\Desktop\logo4.0.png" inkscape:export-xdpi="90" inkscape:connector-curvature="0" inkscape:export-ydpi="90" fill="#FFFFFF" d="
		M640.047,302.148c0-12.544,4.287-23.658,13.02-33.503c3.176-3.652,5.717-5.398,7.463-5.398c0.635,0,1.271,0.158,1.747,0.635
		c0.476,0.477,0.794,0.953,0.794,1.588c0,0.953-1.112,2.382-3.335,4.604c-9.051,8.733-13.655,19.53-13.655,32.392
		c0,14.29,4.764,25.882,14.132,34.773c1.905,1.746,2.857,3.176,2.857,4.287c0,0.635-0.317,1.27-0.794,1.746
		c-0.476,0.477-1.111,0.794-1.746,0.794c-2.223,0-5.24-2.54-9.209-7.621C643.698,327.077,640.047,315.645,640.047,302.148z"/>
	
		<path id="path31" inkscape:export-filename="C:\Users\anon\Desktop\logo4.0.png" inkscape:export-xdpi="90" inkscape:connector-curvature="0" inkscape:export-ydpi="90" fill="#FFFFFF" d="
		M760.244,305.324c0,12.544-4.287,23.658-13.021,33.503c-3.176,3.651-5.716,5.398-7.463,5.398c-0.635,0-1.271-0.159-1.746-0.636
		c-0.477-0.476-0.794-1.111-0.794-1.746c0-0.953,1.111-2.382,3.334-4.446c9.051-8.732,13.655-19.529,13.655-32.391
		c0-14.291-4.764-25.882-14.132-34.773c-1.905-1.747-2.857-3.176-2.857-4.287c0-0.636,0.317-1.271,0.794-1.747
		c0.476-0.476,1.111-0.794,1.746-0.794c2.064,0,5.24,2.541,9.21,7.622C756.433,280.554,760.244,291.986,760.244,305.324z"/>
	
		<g id="g33" transform="translate(-4.8945596e-8,2)" inkscape:export-filename="C:\Users\anon\Desktop\logo4.0.png" inkscape:export-xdpi="90" inkscape:export-ydpi="90">
		<line id="line35" fill="none" x1="673.867" y1="331.27" x2="728.964" y2="331.27"/>
		<path id="path37" inkscape:connector-curvature="0" fill="#F9F9F9" d="M728.805,334.604h-55.097c-1.746,0-3.334-1.429-3.334-3.334
			s1.429-3.334,3.334-3.334h55.097c1.747,0,3.335,1.429,3.335,3.334S730.711,334.604,728.805,334.604z"/>
	</g>
	
		<path id="path3081" inkscape:export-filename="C:\Users\anon\Desktop\logo4.0.png" inkscape:export-xdpi="90" inkscape:connector-curvature="0" inkscape:export-ydpi="90" fill="#FFFFFF" d="
		M718.24,288.777c-0.89-2.99-2.286-5.797-4.449-8.034c-0.573-0.593-1.187-1.146-1.798-1.697c-0.479-0.434-1.666-1.135-1.914-1.717
		c1.261,2.967,2.524,6.045,1.572,9.298c-0.431,1.472-2.058,4.996-4.179,4.098c-2.005-0.851-1.771-5.054-1.944-6.752
		c-0.424-4.167-1.345-8.325-3.567-11.933c-1.21-1.965-2.796-3.712-4.792-4.896c-2.621-1.557-5.34-2.603-8.323-1.475
		c0.656-0.248,2.387,1.74,2.709,2.123c1.046,1.239,1.917,2.706,2.383,4.265c0.947,3.167,0.121,6.773-0.985,9.792
		c-2.29,6.248-6.111,11.867-7.944,18.292c-0.64,2.239-1.079,4.541-1.199,6.869c-0.377,7.335,3.432,14.054,9.463,18.155
		c1.369,0.931,3.803,2.097,5.535,1.497c-5.062-2.708-6.746-4.933-7.527-8.119c-1.812-7.388,5.101-12.078,8.091-17.922
		c0.796-1.556,1.374-3.265,1.172-5.028c-0.075-0.658-0.823-3.893-1.816-3.733c3.01-0.482,4.97,1.521,6,4.136
		c1.085,2.754,1.729,5.583,1.251,8.512c-0.161,0.979-0.897,4.04,0.521,4.238c1.952,0.274,3.628-2.315,3.228-4.815
		c-0.206-1.149-0.411-2.941-0.411-2.942c2.074,2.556,3.016,5.114,3.32,7.919c0.545,5.021-1.595,11.621-5.618,15.719
		c1.691-1.724,3.845-2.914,5.478-4.754c1.668-1.879,2.941-4.052,3.937-6.351c2.228-5.146,3.528-10.964,3.166-16.584
		C719.425,294.255,719.034,291.443,718.24,288.777L718.24,288.777z"/>
</g>
</svg>
