<?xml version="1.0" encoding="utf-8"?>
<!-- Generator: Adobe Illustrator 16.0.0, SVG Export Plug-In . SVG Version: 6.00 Build 0)  -->
<!DOCTYPE svg PUBLIC "-//W3C//DTD SVG 1.1//EN" "http://www.w3.org/Graphics/SVG/1.1/DTD/svg11.dtd">
<svg version="1.1"
	 id="Layer_1" xmlns:sodipodi="http://sodipodi.sourceforge.net/DTD/sodipodi-0.dtd" xmlns:cc="http://creativecommons.org/ns#" xmlns:svg="http://www.w3.org/2000/svg" xmlns:inkscape="http://www.inkscape.org/namespaces/inkscape" xmlns:dc="http://purl.org/dc/elements/1.1/" xmlns:rdf="http://www.w3.org/1999/02/22-rdf-syntax-ns#" sodipodi:docname="freeCodeCamp.svg" inkscape:version="0.48.5 r10040"
	 xmlns="http://www.w3.org/2000/svg" xmlns:xlink="http://www.w3.org/1999/xlink" x="0px" y="0px" width="500px" height="500px"
	 viewBox="3.692 15.195 500 500" enable-background="new 3.692 15.195 500 500" xml:space="preserve">
<sodipodi:namedview  id="namedview43" showgrid="false" inkscape:zoom="1" bordercolor="#666666" objecttolerance="10" inkscape:cy="-163.56938" pagecolor="#ffffff" gridtolerance="10" inkscape:cx="215.72458" guidetolerance="10" borderopacity="1" inkscape:pageshadow="2" inkscape:window-maximized="1" inkscape:pageopacity="0" inkscape:current-layer="Layer_1" inkscape:window-height="705" inkscape:window-x="-4" inkscape:window-width="1366" inkscape:window-y="-4">
	</sodipodi:namedview>
<g>
	
		<path id="rect3038" inkscape:export-filename="C:\Users\anon\Desktop\logo4.0.png" inkscape:export-xdpi="90" inkscape:export-ydpi="90" fill="#502D16" d="
		M12.846,230.779h481.692c5.055,0,9.154,3.83,9.154,8.554v51.725c0,4.724-4.1,8.554-9.154,8.554H12.846
		c-5.056,0-9.155-3.83-9.155-8.554v-51.725C3.691,234.609,7.79,230.779,12.846,230.779z"/>
	
		<path id="path5" inkscape:export-filename="C:\Users\anon\Desktop\logo4.0.png" inkscape:export-xdpi="90" inkscape:connector-curvature="0" inkscape:export-ydpi="90" fill="#FFFFFF" d="
		M28.234,258.504h-4.056c-1.42,0-2.13-0.568-2.13-1.705s0.71-1.706,2.13-1.706h4.056v-3.316c0-5.78,3.145-8.624,9.432-8.624
		c2.536,0,4.665,0.475,6.39,1.327c2.13,1.231,3.245,3.033,3.245,5.307c0,1.517-0.608,2.18-1.825,2.18
		c-0.811,0-1.521-0.474-1.927-1.327c-0.507-1.516-1.014-2.369-1.318-2.747c-0.71-0.854-2.231-1.327-4.462-1.327
		c-3.854,0-5.68,1.801-5.68,5.307v3.222h7.404c1.623,0,2.434,0.569,2.434,1.706s-0.812,1.705-2.434,1.705h-7.404v21.701
		c0,1.326-0.608,1.99-1.825,1.99c-1.218,0-1.826-0.664-1.826-1.99v-21.701H28.234z"/>
	
		<path id="path7" inkscape:export-filename="C:\Users\anon\Desktop\logo4.0.png" inkscape:export-xdpi="90" inkscape:connector-curvature="0" inkscape:export-ydpi="90" fill="#FFFFFF" d="
		M61.196,278.31v-19.806h-5.477c-1.521,0-2.231-0.568-2.231-1.705s0.71-1.706,2.231-1.706h7.302c1.217,0,1.927,1.043,1.927,2.938
		c2.231-2.274,4.666-3.506,7.201-3.506c2.13,0,3.753,0.568,4.97,1.801c1.217,1.231,1.825,2.843,1.825,4.737
		c0,1.327-0.608,1.99-1.825,1.99c-0.71,0-1.217-0.474-1.521-1.326c-0.507-1.611-0.812-2.464-0.913-2.559
		c-0.507-0.854-1.521-1.327-2.84-1.327c-1.419,0-2.738,0.474-3.955,1.422c-0.71,0.474-1.725,1.517-3.043,3.032v15.825h6.896
		c1.521,0,2.231,0.569,2.231,1.611c0,1.137-0.71,1.8-2.231,1.8H55.618c-1.521,0-2.231-0.568-2.231-1.705s0.71-1.706,2.231-1.706
		h5.578V278.31z"/>
	
		<path id="path9" inkscape:export-filename="C:\Users\anon\Desktop\logo4.0.png" inkscape:export-xdpi="90" inkscape:connector-curvature="0" inkscape:export-ydpi="90" fill="#FFFFFF" d="
		M88.883,269.023v3.79c0,4.074,3.042,6.065,9.229,6.065c2.231,0,4.057-0.189,5.477-0.664c0.709-0.189,2.028-0.853,3.752-1.99
		c1.116-0.947,1.927-1.421,2.231-1.421c1.015,0,1.521,0.474,1.521,1.517c0,1.042-0.71,2.084-2.231,3.222
		c-2.435,1.8-6.086,2.748-10.954,2.748c-8.519,0-12.779-3.127-12.779-9.382v-9.477c0-2.179,0.913-4.074,2.637-5.591
		c2.333-2.085,5.781-3.032,10.446-3.032c8.316,0,12.475,3.886,12.475,11.562c0,1.896-0.812,2.843-2.333,2.843H88.883V269.023z
		 M88.883,265.611h18.154c0-5.117-3.042-7.676-9.229-7.676c-2.231,0-4.26,0.475-6.085,1.422c-1.825,1.231-2.84,2.653-2.84,4.264
		V265.611z"/>
	
		<path id="path11" inkscape:export-filename="C:\Users\anon\Desktop\logo4.0.png" inkscape:export-xdpi="90" inkscape:connector-curvature="0" inkscape:export-ydpi="90" fill="#FFFFFF" d="
		M120.729,269.023v3.79c0,4.074,3.042,6.065,9.229,6.065c2.231,0,4.057-0.189,5.477-0.664c0.71-0.189,2.029-0.853,3.753-1.99
		c1.116-0.947,1.927-1.421,2.231-1.421c1.014,0,1.521,0.474,1.521,1.517c0,1.042-0.71,2.084-2.231,3.222
		c-2.434,1.8-6.085,2.748-10.953,2.748c-8.52,0-12.779-3.127-12.779-9.382v-9.477c0-2.179,0.913-4.074,2.637-5.591
		c2.333-2.085,5.781-3.032,10.446-3.032c8.316,0,12.475,3.886,12.475,11.562c0,1.896-0.811,2.843-2.333,2.843h-19.473V269.023z
		 M120.729,265.611h18.154c0-5.117-3.042-7.676-9.229-7.676c-2.231,0-4.26,0.475-6.085,1.422c-1.927,1.231-2.84,2.653-2.84,4.264
		V265.611z"/>
	
		<path id="path13" inkscape:export-filename="C:\Users\anon\Desktop\logo4.0.png" inkscape:export-xdpi="90" inkscape:connector-curvature="0" inkscape:export-ydpi="90" fill="#FFFFFF" d="
		M149.229,271.203V256.42c0-7.771,4.361-11.562,13.185-11.562c3.549,0,6.389,0.759,8.62,2.18c2.535,1.801,3.752,4.265,3.752,7.297
		c0,1.421-0.608,2.18-1.927,2.18c-0.913,0-1.521-0.663-1.927-2.085c-0.202-1.137-0.709-2.274-1.419-3.316
		c-1.116-1.896-3.55-2.748-7.404-2.748c-3.246,0-5.578,0.758-6.998,2.273c-1.319,1.422-2.029,3.602-2.029,6.729v12.319
		c0,3.222,0.709,5.496,2.13,6.918c1.521,1.516,3.854,2.368,7.1,2.368c4.969,0,7.809-1.61,8.519-4.832
		c0.305-1.232,0.406-1.801,0.406-1.896c0.304-0.663,0.811-1.042,1.521-1.042c1.217,0,1.927,0.758,1.927,2.179
		c0,2.938-1.318,5.212-3.955,7.013c-2.13,1.327-4.869,1.99-8.316,1.99c-4.057,0-7.201-0.854-9.534-2.653
		C150.445,277.741,149.229,274.898,149.229,271.203L149.229,271.203z"/>
	
		<path id="path15" inkscape:export-filename="C:\Users\anon\Desktop\logo4.0.png" inkscape:export-xdpi="90" inkscape:connector-curvature="0" inkscape:export-ydpi="90" fill="#FFFFFF" d="
		M180.669,273.287v-9.76c0-5.971,4.26-8.908,12.779-8.908c8.52,0,12.779,2.938,12.779,8.908v9.76c0,5.971-4.158,8.908-12.576,8.908
		C184.929,282.195,180.669,279.258,180.669,273.287L180.669,273.287z M202.474,273.287v-9.76c0-3.696-3.042-5.592-9.229-5.592
		c-5.883,0-8.925,1.896-8.925,5.592v9.76c0,3.696,3.042,5.592,9.128,5.496C199.533,278.783,202.474,276.983,202.474,273.287
		L202.474,273.287z"/>
	
		<path id="path17" inkscape:export-filename="C:\Users\anon\Desktop\logo4.0.png" inkscape:export-xdpi="90" inkscape:connector-curvature="0" inkscape:export-ydpi="90" fill="#FFFFFF" d="
		M234.117,278.973c-1.724,1.232-3.246,1.99-4.563,2.465c-1.42,0.474-3.145,0.758-5.173,0.758c-3.448,0-6.187-0.664-8.316-1.99
		c-2.434-1.516-3.651-3.791-3.651-6.918v-9.949c0-2.938,1.217-5.213,3.55-6.729c2.028-1.327,4.767-1.99,8.012-1.99
		c2.13,0,3.955,0.189,5.375,0.663s2.941,1.327,4.564,2.559v-12.224c0-1.611,0.609-2.465,1.724-2.465
		c1.217,0,1.927,0.854,1.927,2.465v34.777c0,1.232-0.608,1.801-1.724,1.801c-0.71,0-1.217-0.38-1.42-1.138
		C234.219,280.489,234.117,279.826,234.117,278.973L234.117,278.973z M233.914,274.993v-13.646c-1.825-1.232-3.245-2.085-4.36-2.464
		c-1.522-0.569-3.145-0.854-4.97-0.854c-2.333,0-4.26,0.38-5.68,1.232c-1.826,1.043-2.738,2.559-2.738,4.454v9.381
		c0,1.99,0.913,3.507,2.84,4.549c1.521,0.758,3.448,1.232,5.781,1.232c1.927,0,3.651-0.285,5.071-0.854
		C231.074,277.268,232.394,276.32,233.914,274.993L233.914,274.993z"/>
	
		<path id="path19" inkscape:export-filename="C:\Users\anon\Desktop\logo4.0.png" inkscape:export-xdpi="90" inkscape:connector-curvature="0" inkscape:export-ydpi="90" fill="#FFFFFF" d="
		M247.911,269.023v3.79c0,4.074,3.042,6.065,9.229,6.065c2.231,0,4.056-0.189,5.477-0.664c0.71-0.189,2.029-0.853,3.753-1.99
		c1.115-0.947,1.927-1.421,2.231-1.421c1.014,0,1.521,0.474,1.521,1.517c0,1.042-0.71,2.084-2.231,3.222
		c-2.434,1.8-6.085,2.748-10.954,2.748c-8.519,0-12.779-3.127-12.779-9.382v-9.477c0-2.179,0.913-4.074,2.637-5.591
		c2.332-2.085,5.781-3.032,10.446-3.032c8.316,0,12.475,3.886,12.475,11.562c0,1.896-0.812,2.843-2.333,2.843h-19.473V269.023z
		 M247.911,265.611h18.154c0-5.117-3.043-7.676-9.229-7.676c-2.231,0-4.26,0.475-6.085,1.422c-1.927,1.231-2.84,2.653-2.84,4.264
		V265.611z"/>
	
		<path id="path21" inkscape:export-filename="C:\Users\anon\Desktop\logo4.0.png" inkscape:export-xdpi="90" inkscape:connector-curvature="0" inkscape:export-ydpi="90" fill="#FFFFFF" d="
		M276.409,271.203V256.42c0-7.771,4.361-11.562,13.185-11.562c3.55,0,6.389,0.759,8.621,2.18c2.536,1.801,3.753,4.265,3.753,7.297
		c0,1.421-0.608,2.18-1.927,2.18c-0.913,0-1.521-0.663-1.927-2.085c-0.203-1.137-0.71-2.274-1.419-3.316
		c-1.116-1.896-3.55-2.748-7.405-2.748c-3.245,0-5.578,0.758-6.997,2.273c-1.319,1.422-2.028,3.602-2.028,6.729v12.319
		c0,3.222,0.709,5.496,2.129,6.918c1.521,1.516,3.854,2.368,7.1,2.368c4.969,0,7.809-1.61,8.519-4.832
		c0.304-1.232,0.406-1.801,0.406-1.896c0.304-0.663,0.811-1.042,1.521-1.042c1.217,0,1.927,0.758,1.927,2.179
		c0,2.938-1.318,5.212-3.956,7.013c-2.13,1.327-4.868,1.99-8.316,1.99c-4.057,0-7.201-0.854-9.533-2.653
		C277.728,277.741,276.409,274.898,276.409,271.203L276.409,271.203z"/>
	
		<path id="path23" inkscape:export-filename="C:\Users\anon\Desktop\logo4.0.png" inkscape:export-xdpi="90" inkscape:connector-curvature="0" inkscape:export-ydpi="90" fill="#FFFFFF" d="
		M328.336,278.973c-1.825,1.232-3.245,2.085-4.26,2.465c-1.318,0.474-2.941,0.758-4.969,0.758c-3.042,0-5.578-0.568-7.505-1.801
		c-2.231-1.422-3.448-3.507-3.448-6.254c0-2.748,1.217-4.928,3.55-6.444c2.028-1.421,4.665-2.085,7.708-2.085
		c2.536,0,5.375,0.569,8.621,1.611v-4.17c0-1.99-1.014-3.411-3.042-4.264c-1.42-0.568-3.144-0.854-5.173-0.854
		c-4.766,0-7.302,1.232-7.809,3.696c-0.203,1.137-0.406,1.706-0.406,1.8c-0.304,0.569-0.812,0.854-1.521,0.854
		c-1.318,0-2.029-0.664-2.029-1.99c0-1.801,0.71-3.411,2.231-4.928c1.826-1.896,5.172-2.843,9.837-2.843
		c3.752,0,6.491,0.568,8.317,1.706c2.129,1.421,3.245,3.79,3.245,7.107v12.129c0,1.421,0.305,2.369,0.913,2.843
		c0.102,0.095,0.709,0.38,1.724,0.759c0.609,0.284,0.912,0.758,0.912,1.61c0,0.948-0.506,1.422-1.623,1.422
		c-0.304,0-0.811-0.096-1.622-0.379c-1.42-0.474-2.333-0.759-2.536-0.854C328.945,280.584,328.539,279.921,328.336,278.973
		L328.336,278.973z M328.133,275.372v-5.022c-2.84-0.853-5.578-1.326-8.012-1.326c-5.477,0-8.215,1.61-8.215,4.928
		c0,1.705,0.811,3.032,2.434,3.79c1.319,0.663,2.942,1.042,4.97,1.042c1.724,0,3.347-0.284,4.766-0.947
		C325.192,277.457,326.511,276.604,328.133,275.372z"/>
	
		<path id="path25" inkscape:export-filename="C:\Users\anon\Desktop\logo4.0.png" inkscape:export-xdpi="90" inkscape:connector-curvature="0" inkscape:export-ydpi="90" fill="#FFFFFF" d="
		M342.535,257.462c0.913-1.042,1.724-1.8,2.333-2.084c0.811-0.475,1.825-0.759,3.144-0.759c2.028,0,3.752,0.947,5.274,2.938
		c1.014-1.137,1.927-1.895,2.738-2.274c0.913-0.474,2.129-0.663,3.549-0.663c4.361,0,6.593,1.99,6.593,5.97v19.237
		c0,1.611-0.608,2.369-1.927,2.369c-1.216,0-1.825-0.758-1.825-2.369v-18.1c0-2.464-1.115-3.791-3.246-3.791
		c-1.622,0-3.246,0.948-4.666,2.748v19.143c0,1.611-0.609,2.369-1.825,2.369c-1.217,0-1.826-0.758-1.826-2.369v-17.721
		c0-2.748-1.217-4.075-3.55-4.075c-1.521,0-2.941,0.948-4.462,2.749v19.047c0,1.611-0.609,2.369-1.927,2.369
		c-1.217,0-1.826-0.758-1.826-2.369v-23.501c0-1.137,0.507-1.706,1.521-1.706c0.507,0,1.014,0.379,1.318,1.043
		C342.333,256.136,342.535,256.799,342.535,257.462L342.535,257.462z"/>
	
		<path id="path27" inkscape:export-filename="C:\Users\anon\Desktop\logo4.0.png" inkscape:export-xdpi="90" inkscape:connector-curvature="0" inkscape:export-ydpi="90" fill="#FFFFFF" d="
		M375.497,257.462c2.84-1.896,6.187-2.843,9.838-2.843c7.708,0,11.561,3.032,11.561,9.002v9.855c0,2.844-1.115,5.022-3.245,6.634
		c-1.927,1.421-4.564,2.18-7.911,2.18c-3.955,0-7.301-0.948-10.243-2.938v11.182c0,1.705-0.608,2.559-1.825,2.559
		c-1.217,0-1.826-0.854-1.826-2.559v-33.356c0-1.706,0.507-2.559,1.522-2.559c0.507,0,1.014,0.379,1.419,1.043
		C374.989,256.23,375.294,256.894,375.497,257.462L375.497,257.462z M375.497,275.467c2.637,2.18,5.883,3.316,9.635,3.316
		c2.332,0,4.158-0.379,5.578-1.231c1.724-0.947,2.535-2.369,2.535-4.169v-9.855c0-2.085-0.912-3.507-2.738-4.454
		c-1.42-0.663-3.347-1.043-5.68-1.043c-2.13,0-3.854,0.284-5.172,0.854c-1.218,0.474-2.536,1.516-4.159,3.032V275.467
		L375.497,275.467z"/>
	
		<path id="path29" inkscape:export-filename="C:\Users\anon\Desktop\logo4.0.png" inkscape:export-xdpi="90" inkscape:connector-curvature="0" inkscape:export-ydpi="90" fill="#FFFFFF" d="
		M409.474,266.086c0-7.486,2.738-14.12,8.316-19.995c2.027-2.18,3.65-3.222,4.766-3.222c0.406,0,0.812,0.094,1.115,0.379
		c0.305,0.284,0.508,0.568,0.508,0.947c0,0.569-0.711,1.422-2.129,2.748c-5.781,5.212-8.723,11.656-8.723,19.332
		c0,8.528,3.043,15.446,9.027,20.753c1.215,1.042,1.824,1.896,1.824,2.559c0,0.379-0.203,0.758-0.508,1.042
		c-0.303,0.284-0.709,0.474-1.115,0.474c-1.42,0-3.346-1.516-5.881-4.548C411.806,280.963,409.474,274.141,409.474,266.086z"/>
	
		<path id="path31" inkscape:export-filename="C:\Users\anon\Desktop\logo4.0.png" inkscape:export-xdpi="90" inkscape:connector-curvature="0" inkscape:export-ydpi="90" fill="#FFFFFF" d="
		M486.249,267.98c0,7.486-2.738,14.12-8.318,19.995c-2.027,2.18-3.65,3.222-4.766,3.222c-0.406,0-0.812-0.095-1.115-0.379
		c-0.305-0.284-0.508-0.663-0.508-1.042c0-0.569,0.709-1.422,2.129-2.654c5.781-5.211,8.723-11.655,8.723-19.33
		c0-8.529-3.043-15.447-9.025-20.754c-1.219-1.042-1.826-1.895-1.826-2.559c0-0.379,0.203-0.758,0.508-1.042
		c0.303-0.284,0.709-0.475,1.115-0.475c1.318,0,3.346,1.517,5.883,4.55C483.813,253.197,486.249,260.021,486.249,267.98z"/>
	
		<g id="g33" transform="translate(-4.8945596e-8,2)" inkscape:export-filename="C:\Users\anon\Desktop\logo4.0.png" inkscape:export-xdpi="90" inkscape:export-ydpi="90">
		<line id="line35" fill="none" x1="431.075" y1="282.659" x2="466.269" y2="282.659"/>
		<path id="path37" inkscape:connector-curvature="0" fill="#F9F9F9" d="M466.167,284.648h-35.193c-1.115,0-2.129-0.853-2.129-1.989
			c0-1.138,0.912-1.99,2.129-1.99h35.193c1.115,0,2.129,0.853,2.129,1.99C468.296,283.796,467.384,284.648,466.167,284.648z"/>
	</g>
	
		<path id="path3081" inkscape:export-filename="C:\Users\anon\Desktop\logo4.0.png" inkscape:export-xdpi="90" inkscape:connector-curvature="0" inkscape:export-ydpi="90" fill="#FFFFFF" d="
		M459.419,258.105c-0.568-1.784-1.461-3.459-2.842-4.795c-0.367-0.354-0.758-0.684-1.148-1.013
		c-0.307-0.259-1.064-0.678-1.223-1.024c0.805,1.771,1.611,3.607,1.004,5.549c-0.275,0.878-1.314,2.981-2.67,2.445
		c-1.279-0.508-1.131-3.016-1.242-4.029c-0.27-2.487-0.857-4.969-2.277-7.122c-0.773-1.172-1.787-2.215-3.062-2.922
		c-1.672-0.929-3.41-1.553-5.314-0.88c0.418-0.148,1.523,1.038,1.729,1.267c0.67,0.74,1.227,1.615,1.523,2.546
		c0.604,1.89,0.078,4.042-0.631,5.844c-1.461,3.729-3.902,7.082-5.074,10.917c-0.406,1.336-0.688,2.71-0.764,4.1
		c-0.242,4.377,2.191,8.387,6.043,10.835c0.875,0.556,2.43,1.251,3.535,0.894c-3.234-1.616-4.309-2.944-4.807-4.846
		c-1.158-4.409,3.258-7.208,5.168-10.696c0.508-0.928,0.877-1.948,0.748-3.001c-0.049-0.393-0.525-2.323-1.16-2.228
		c1.922-0.288,3.174,0.908,3.832,2.468c0.693,1.644,1.105,3.332,0.799,5.08c-0.102,0.585-0.572,2.411,0.334,2.529
		c1.246,0.164,2.316-1.382,2.061-2.874c-0.131-0.686-0.262-1.755-0.262-1.756c1.324,1.525,1.926,3.053,2.121,4.727
		c0.348,2.996-1.02,6.936-3.59,9.381c1.08-1.029,2.455-1.739,3.498-2.837c1.066-1.122,1.881-2.419,2.516-3.791
		c1.422-3.071,2.254-6.543,2.021-9.897C460.175,261.375,459.925,259.696,459.419,258.105L459.419,258.105z"/>
</g>
</svg>
